<?xml version="1.0" encoding="utf-8"?>
<!-- Generator: Adobe Illustrator 23.0.1, SVG Export Plug-In . SVG Version: 6.00 Build 0)  -->
<!DOCTYPE svg PUBLIC "-//W3C//DTD SVG 1.1//EN" "http://www.w3.org/Graphics/SVG/1.1/DTD/svg11.dtd" [
	<!ENTITY ns_extend "http://ns.adobe.com/Extensibility/1.0/">
	<!ENTITY ns_ai "http://ns.adobe.com/AdobeIllustrator/10.0/">
	<!ENTITY ns_graphs "http://ns.adobe.com/Graphs/1.0/">
	<!ENTITY ns_vars "http://ns.adobe.com/Variables/1.0/">
	<!ENTITY ns_imrep "http://ns.adobe.com/ImageReplacement/1.0/">
	<!ENTITY ns_sfw "http://ns.adobe.com/SaveForWeb/1.0/">
	<!ENTITY ns_custom "http://ns.adobe.com/GenericCustomNamespace/1.0/">
	<!ENTITY ns_adobe_xpath "http://ns.adobe.com/XPath/1.0/">
]>
<svg version="1.1"
	 id="Content" xmlns:x="&ns_extend;" xmlns:i="&ns_ai;" xmlns:graph="&ns_graphs;" xmlns:cc="http://creativecommons.org/ns#" xmlns:dc="http://purl.org/dc/elements/1.1/" xmlns:inkscape="http://www.inkscape.org/namespaces/inkscape" xmlns:rdf="http://www.w3.org/1999/02/22-rdf-syntax-ns#" xmlns:sodipodi="http://sodipodi.sourceforge.net/DTD/sodipodi-0.dtd" xmlns:svg="http://www.w3.org/2000/svg"
	 xmlns="http://www.w3.org/2000/svg" xmlns:xlink="http://www.w3.org/1999/xlink" x="0px" y="0px" viewBox="0 0 6596.059 6592.51"
	 enable-background="new 0 0 6596.059 6592.51" xml:space="preserve">
<metadata  id="metadata85">
	<rdf:RDF>
		<cc:Work  rdf:about="">
			<dc:format>image/svg+xml</dc:format>
			<dc:type  rdf:resource="http://purl.org/dc/dcmitype/StillImage"></dc:type>
			<dc:title>Google Keep</dc:title>
		</cc:Work>
	</rdf:RDF>
	<sfw  xmlns="&ns_sfw;">
		<slices></slices>
		<sliceSourceBounds  bottomLeftOrigin="true" height="7890.146" width="7894.421" x="-3201.925" y="-4497.927">
			</sliceSourceBounds>
	</sfw>
</metadata>
<filter  height="192" id="material-drop-shadow" width="192" x="-24" y="-24">
	<feGaussianBlur  id="feGaussianBlur10" in="SourceGraphic" result="blur" stdDeviation="4"></feGaussianBlur>
	<feOffset  dx="4" dy="4" id="feOffset12" in="blur" result="offsetBlurredGraphic"></feOffset>
</filter>
<g id="g76">
	<g id="g72">
		<path id="path24" inkscape:connector-curvature="0" fill="#F4B400" d="M4686.673,6592.51H520.742
			C233.493,6591.67,0.841,6359.143,0,6072.048V520.461C0.841,233.367,233.493,0.84,520.742,0h5554.576
			c287.249,0.84,519.901,233.367,520.742,520.461v4163.69l-1128.273,780.692L4686.673,6592.51z"/>
		
			<linearGradient id="SVGID_1_" gradientUnits="userSpaceOnUse" x1="1975.772" y1="4033.5845" x2="4798.5518" y2="6856.3638" gradientTransform="matrix(1.2639 0 0 1.2632 -389.1291 -3094.8689)">
			<stop  offset="0" style="stop-color:#BF360C;stop-opacity:0.1"/>
			<stop  offset="1" style="stop-color:#BF360C;stop-opacity:0.02"/>
		</linearGradient>
		<path fill="url(#SVGID_1_)" d="M2194.058,1496.728c-610.435,609.131-611.226,1597.517-1.768,2207.623c0.3,0.3,0.6,0.6,0.9,0.9
			l323.728,324.421v1174.941L3905.561,6592.51h781.113l1909.385-1908.358v-993.648L4402.87,1498.495
			C3793.411,888.389,2804.492,887.598,2194.058,1496.728z"/>
		<g id="g38">
			<g id="g34" opacity="0.2" filter="url(#material-drop-shadow)">
				<path id="path32_1_" inkscape:connector-curvature="0" fill="#3E2723" d="M4686.673,6592.51V5204.613
					c-0.079-287.364,232.936-520.382,520.455-520.461c0.096,0,0.191,0,0.287,0h1388.644L4686.673,6592.51z"/>
			</g>
			<path id="path36" inkscape:connector-curvature="0" fill="#FADA80" d="M4686.673,6592.51V5204.613
				c-0.079-287.364,232.936-520.382,520.455-520.461c0.096,0,0.191,0,0.287,0h1388.644L4686.673,6592.51z"/>
		</g>
		<path fill="#FFFFFF" fill-opacity="0.2" d="M5207.128,4684.152c-287.519,0.079-520.534,233.097-520.454,520.461v43.084
			c0.079-287.364,233.223-520.253,520.741-520.174h1345.249l43.395-43.372H5207.415
			C5207.319,4684.152,5207.224,4684.152,5207.128,4684.152z"/>
		<g id="g56">
			<g id="g50">
				<path id="path46" inkscape:connector-curvature="0" opacity="0.1" fill="#3E2723" enable-background="new    " d="
					M3298.03,1040.923c-862.688-0.105-1562.119,698.781-1562.224,1561.005c-0.068,557.867,297.704,1073.377,781.112,1352.277
					v1250.408h347.161v346.975h954.693v-346.975h347.161V3900.424c717.367-479.021,910.376-1448.572,431.097-2165.553
					C4307.163,1301.242,3819.814,1040.892,3298.03,1040.923z M3818.771,4857.639h-954.693v-346.974h954.693V4857.639z
					 M3818.771,3699.179v464.512h-954.693v-427.212c-627.01-239.395-941.129-941.48-701.605-1568.153
					c239.523-626.672,941.987-940.622,1568.997-701.228s941.129,941.48,701.605,1568.153
					C4321.437,3327.333,4101.404,3565.14,3818.771,3699.179z"/>
				<path id="path48" inkscape:connector-curvature="0" fill="#F1F1F1" d="M3298.03,1040.923
					c-862.688-0.105-1562.119,698.781-1562.224,1561.005c-0.068,557.867,297.704,1073.377,781.112,1352.277v1250.408h347.161
					v346.975h954.693v-346.975h347.161V3900.424c717.367-479.021,910.376-1448.572,431.097-2165.553
					C4307.163,1301.242,3819.814,1040.892,3298.03,1040.923z M3818.771,4857.639h-954.693v-346.974h954.693V4857.639z
					 M3818.771,3699.179v464.512h-954.693v-427.212c-627.01-239.395-941.129-941.48-701.605-1568.153
					c239.523-626.672,941.987-940.622,1568.997-701.228s941.129,941.48,701.605,1568.153
					C4321.437,3327.333,4101.404,3565.14,3818.771,3699.179z"/>
			</g>
			<path id="path52" inkscape:connector-curvature="0" fill="#FFFFFF" fill-opacity="0.4" d="M2864.078,4901.011h954.693v-43.372
				h-954.693V4901.011z M2864.078,4207.062h954.693v-43.372h-954.693V4207.062z M2864.078,3736.479
				c-463.972-177.963-772.916-620.179-780.245-1116.823c0,8.674-0.868,17.349-0.868,26.457
				c0.711,503.105,311.166,953.885,781.112,1134.172V3736.479z M3818.771,3699.179v43.372
				c423.652-201.276,693.797-628.044,694.322-1096.872c0-8.674-0.434-16.915-0.868-25.589
				C4505.382,3082.374,4236.558,3500.694,3818.771,3699.179z M3298.03,1040.923c-862.764,0.069-1562.156,699.084-1562.224,1561.384
				c0,6.072,0.434,12.144,0.434,18.65c13.526-862.087,723.726-1549.988,1586.277-1536.47
				c843.655,13.222,1524.309,693.699,1537.304,1536.903c0-6.506,0.434-12.578,0.434-19.084
				C4860.185,1740.007,4160.794,1040.992,3298.03,1040.923z"/>
			<path id="path54" inkscape:connector-curvature="0" fill="#BF360C" fill-opacity="0.1" d="M2516.917,3954.205
				c-477.437-275.544-774.145-782.265-780.678-1333.248c0,8.241-0.434,16.481-0.434,24.722
				c-0.21,557.806,297.619,1073.27,781.112,1351.898V3954.205z M2864.078,4554.037h954.693v-43.372h-954.693V4554.037z
				 M3298.03,1431.269c660.686,0.729,1199.871,528.645,1214.196,1188.821c0-6.072,0.868-11.71,0.868-17.783
				c0-670.7-544.002-1214.41-1215.063-1214.41s-1215.064,543.71-1215.064,1214.41c0,5.638,0.434,11.277,0.868,16.915
				C2098.535,1959.348,2637.637,1431.898,3298.03,1431.269z M3818.771,5247.985h347.161v-43.372h-347.161V5247.985z
				 M4859.82,2621.39c-5.779,514.709-265.458,993.371-693.888,1279.034v43.372c434.085-289.424,694.654-776.588,694.322-1298.117
				C4860.254,2637.438,4859.82,2629.631,4859.82,2621.39z M2864.078,5204.613h-347.161v43.372h347.161V5204.613z M2864.078,5594.959
				h954.693v-43.372h-954.693V5594.959z"/>
		</g>
		<g id="g68">
			<path id="path64" inkscape:connector-curvature="0" fill="#FFFFFF" fill-opacity="0.2" d="M6075.317,0H520.742
				C233.493,0.84,0.841,233.367,0,520.461v43.372C0.841,276.739,233.493,44.212,520.742,43.372h5554.576
				c287.249,0.84,519.901,233.367,520.742,520.461v-43.372C6595.219,233.367,6362.566,0.84,6075.317,0z"/>
			<path id="path66" inkscape:connector-curvature="0" fill="#BF360C" fill-opacity="0.1" d="M520.742,6549.138
				C233.493,6548.298,0.841,6315.771,0,6028.677v43.372c0.841,287.095,233.493,519.622,520.742,520.461h4165.932l1909.386-1908.358
				h-43.395L4686.673,6549.138H520.742z"/>
		</g>
	</g>
	
		<radialGradient id="path74_1_" cx="465.3159" cy="2618.032" r="6080.5532" gradientTransform="matrix(1.2639 0 0 1.2632 -389.1291 -3094.8689)" gradientUnits="userSpaceOnUse">
		<stop  offset="0" style="stop-color:#FFFFFF;stop-opacity:0.1"/>
		<stop  offset="1" style="stop-color:#FFFFFF;stop-opacity:0"/>
	</radialGradient>
	<path id="path74" inkscape:connector-curvature="0" fill="url(#path74_1_)" d="M4686.673,6592.51H520.742
		C233.493,6591.67,0.841,6359.143,0,6072.048V520.461C0.841,233.367,233.493,0.84,520.742,0h5554.576
		c287.249,0.84,519.901,233.367,520.742,520.461v4163.69L4686.673,6592.51z"/>
</g>
</svg>
